1.9Hzlow3min_grf.mot
version=1
nRows=20
nColumns 19
inDegrees=yes
endheader
time	1_ground_force_vx	1_ground_force_vy	1_ground_force_vz	1_ground_force_px	1_ground_force_py	1_ground_force_pz	1_ground_torque_x	1_ground_torque_y	1_ground_torque_z	2_ground_force_vx	2_ground_force_vy	2_ground_force_vz	2_ground_force_px	2_ground_force_py	2_ground_force_pz	2_ground_torque_x	2_ground_torque_y	2_ground_torque_z
            0.005000	          -36.995205	         1057.428206	         -120.747627	           -0.267569	            0.006226	           -0.407453	           -0.144343	            4.125736	           -0.471117	          -92.720325	          991.178793	          145.488099	           -0.238788	            0.005888	           -0.772465	            0.230705	           -2.466234	           -0.362001
            0.005500	          -36.676881	         1060.316057	         -121.561455	           -0.267579	            0.006225	           -0.407279	           -0.139244	            4.025506	           -0.461510	          -91.233366	          994.679883	          146.391572	           -0.239247	            0.005887	           -0.772501	            0.219803	           -2.396422	           -0.352692
            0.006000	          -36.128575	         1062.121193	         -122.151215	           -0.267835	            0.006226	           -0.407466	           -0.136633	            4.016792	           -0.461959	          -89.610511	          999.470525	          147.299615	           -0.239712	            0.005885	           -0.772504	            0.209238	           -2.333736	           -0.343940
            0.006500	          -35.625498	         1065.547535	         -122.367070	           -0.267805	            0.006225	           -0.407261	           -0.130753	            3.910781	           -0.449113	          -88.217796	         1003.154352	          148.485338	           -0.240142	            0.005883	           -0.772325	            0.200252	           -2.277139	           -0.337059
            0.007000	          -35.168418	         1067.351867	         -122.773178	           -0.268039	            0.006225	           -0.407319	           -0.130714	            3.967131	           -0.456323	          -86.455667	         1008.313449	          149.488476	           -0.240629	            0.005882	           -0.772422	            0.192607	           -2.246334	           -0.333032
            0.007500	          -34.849086	         1069.697379	         -123.222478	           -0.268221	            0.006225	           -0.407268	           -0.132170	            4.056965	           -0.467337	          -84.600431	         1013.656294	          150.679944	           -0.241071	            0.005880	           -0.772474	            0.185502	           -2.222626	           -0.330393
            0.008000	          -34.667199	         1072.222842	         -123.624826	           -0.268403	            0.006225	           -0.407259	           -0.133604	            4.132244	           -0.476438	          -82.792136	         1018.999640	          151.683719	           -0.241634	            0.005878	           -0.772467	            0.180970	           -2.227367	           -0.331556
            0.008500	          -34.439986	         1073.848379	         -124.306265	           -0.268599	            0.006225	           -0.407353	           -0.133349	            4.157872	           -0.481306	          -80.885368	         1023.053563	          152.917473	           -0.242154	            0.005876	           -0.772515	            0.172558	           -2.182541	           -0.326228
            0.009000	          -34.075282	         1076.915431	         -124.890158	           -0.268749	            0.006225	           -0.407201	           -0.130672	            4.129770	           -0.478930	          -79.260519	         1027.291601	          153.823514	           -0.242687	            0.005874	           -0.772518	            0.165492	           -2.144939	           -0.321177
            0.009500	          -33.665023	         1079.082163	         -125.661468	           -0.268807	            0.006225	           -0.407271	           -0.126632	            4.059003	           -0.472680	          -77.409477	         1033.741086	          154.549659	           -0.243282	            0.005873	           -0.772596	            0.158509	           -2.116766	           -0.316468
            0.010000	          -33.438177	         1081.429034	         -126.431550	           -0.269092	            0.006225	           -0.407228	           -0.123491	            3.993851	           -0.466927	          -75.456606	         1037.979883	          155.643273	           -0.243775	            0.005871	           -0.772566	            0.147468	           -2.028565	           -0.304180
            0.010500	          -33.073521	         1084.135690	         -127.062827	           -0.269207	            0.006225	           -0.407237	           -0.123567	            4.050465	           -0.474722	          -73.366515	         1043.139752	          156.693177	           -0.244379	            0.005868	           -0.772509	            0.146152	           -2.078015	           -0.312145
            0.011000	          -32.845625	         1085.760047	         -127.469153	           -0.269512	            0.006225	           -0.407321	           -0.126012	            4.165502	           -0.489033	          -71.370815	         1048.484019	          157.696873	           -0.244946	            0.005866	           -0.772503	            0.141125	           -2.073212	           -0.311821
            0.011500	          -32.434719	         1089.367088	         -127.867433	           -0.269504	            0.006224	           -0.407178	           -0.126721	            4.256103	           -0.499572	          -69.234673	         1053.829553	          158.418925	           -0.245387	            0.005865	           -0.772462	            0.134232	           -2.043165	           -0.307143
            0.012000	          -32.069149	         1090.810857	         -128.229007	           -0.269682	            0.006225	           -0.407282	           -0.125310	            4.262350	           -0.501056	          -66.723728	         1059.176273	          159.187753	           -0.245950	            0.005863	           -0.772505	            0.134040	           -2.127752	           -0.319788
            0.012500	          -31.704852	         1094.239091	         -128.948925	           -0.269884	            0.006224	           -0.407122	           -0.122263	            4.219687	           -0.497263	          -64.776269	         1064.889031	          160.052007	           -0.246544	            0.005860	           -0.772489	            0.123501	           -2.030291	           -0.305151
            0.013000	          -31.569410	         1095.684388	         -129.676778	           -0.270099	            0.006225	           -0.407290	           -0.118570	            4.115242	           -0.487048	          -62.636024	         1069.128595	          161.051700	           -0.247160	            0.005858	           -0.772386	            0.117309	           -2.002333	           -0.301628
            0.013500	          -30.929500	         1098.571122	         -130.216259	           -0.270287	            0.006224	           -0.407249	           -0.115249	            4.093481	           -0.485210	          -60.264298	         1074.106648	          161.819274	           -0.247750	            0.005855	           -0.772286	            0.115490	           -2.058412	           -0.310109
            0.014000	          -30.748525	         1101.098159	         -130.985455	           -0.270414	            0.006224	           -0.407151	           -0.114653	            4.105715	           -0.488411	          -58.035838	         1079.821015	          162.448728	           -0.248301	            0.005853	           -0.772234	            0.108878	           -2.025792	           -0.304761
            0.014500	          -30.200610	         1103.805290	         -131.663052	           -0.270542	            0.006224	           -0.407197	           -0.116014	            4.240219	           -0.505778	          -55.901014	         1085.534785	          163.219031	           -0.248878	            0.005851	           -0.772215	            0.103785	           -2.015386	           -0.303030
